# xmcd
#
# Track frame offsets: 
#        150
#        17467
#        34801
#        51053
#        67488
#        83375
#        108279
#        126822
#        142856
#        163440
#        181732
#        204167
#
# Disc length: 3030 seconds
#
# Revision: 5
# Processed by: cddbd v1.5.2PL0 Copyright (c) Steve Scherf et al.
# Submitted via: ExactAudioCopy v0.99pb5
#
DISCID=980bd40c
DTITLE=Carol Duboc - Duboc
DYEAR=2002
DGENRE=Jazz
TTITLE0=Away
TTITLE1=This Is No Ordinary Love
TTITLE2=If You Want To
TTITLE3=It's a Feeling
TTITLE4=Anyone Who Had a Heart
TTITLE5=You're All I Ever Needed
TTITLE6=El Gaucho
TTITLE7=Walk on By
TTITLE8=I Wanna Love Someone
TTITLE9=A Love Letter
TTITLE10=When I'm Close to You
TTITLE11=Secrets
EXTD=
EXTT0=
EXTT1=
EXTT2=
EXTT3=
EXTT4=
EXTT5=
EXTT6=
EXTT7=
EXTT8=
EXTT9=
EXTT10=
EXTT11=
PLAYORDER=
